<?xml version="1.0" encoding="UTF-8" standalone="no"?>
<!-- Uploaded to: SVG Repo, www.svgrepo.com, Generator: SVG Repo Mixer Tools -->
<svg xmlns="http://www.w3.org/2000/svg" viewBox="0 0 600 600">
   
  
  <path
     fill="#ffffff"
     
     d="M 229.99025,105.00005 C 164.35786,105.01575 107.13946,148.06968 87.40427,208.84184 35.007172,232.95033 0.076675,285.87922 -2.5000249e-5,344.9473 v 0.0527 C -2.2500023e-4,427.36894 67.63107,495.00008 149.99996,494.99998 h 0.01 324.91603 0.0742 5 v -0.25586 c 66.26706,-2.6822 120.00003,-57.86889 119.99977,-124.74413 2.6e-4,-66.99251 -53.92011,-122.25993 -120.34765,-124.76171 -21.13328,-40.26147 -63.3285,-67.22466 -110.64058,-67.23827 -0.055,-1.2e-4 -0.11069,-1.2e-4 -0.16609,0 -3.32011,0.0129 -6.6237,0.26325 -9.9218,0.53906 -26.5603,-44.66655 -75.21629,-73.52376 -128.91209,-73.53905 z m 0,79.99999 h 0.01 c 31.4553,0.0124 58.6946,20.59202 67.30079,50.84766 6.60421,23.20827 32.0973,35.33139 54.2675,25.80663 5.5355,-2.37864 11.4895,-3.61281 17.5137,-3.64648 22.0263,0.049 40.33482,15.40462 44.19923,37.0996 4.13749,23.21427 27.354,37.83199 50.07617,31.5293 3.81841,-1.05952 7.76038,-1.60163 11.72265,-1.62891 25.28835,0.0406 44.92379,19.69205 44.92369,44.99218 1e-4,25.31423 -19.65582,44.97734 -44.96484,44.99609 -165.03508,0.004 -170.03509,0.004 -325.03507,0.004 -39.1225,4e-5 -69.980491,-30.84933 -69.998086,-69.9668 0.04999,-31.74891 21.026586,-59.13413 51.669886,-67.44725 15.3562,-4.16663 26.7832,-17.0377 29.1016,-32.7793 5.0972,-34.62846 34.2155,-59.78786 69.2148,-59.80663 z"
      />
</svg>